# xmcd
#
# Track frame offsets: 
#        183
#        46513
#        71963
#        123783
#        135743
#        147008
#        196008
#        253118
#
# Disc length: 3407 seconds
#
# Revision: 2
# Processed by: cddbd v1.5.2PL0 Copyright (c) Steve Scherf et al.
# Submitted via: ExactAudioCopy v0.99pb5
#
DISCID=6c0d4d08
DTITLE=Seiji Ozawa and Boston Symphony Orchestra - The Philips Years [CD
DTITLE=22) - Mahler - Symphonies Nos.9 and 10 - No.9
DYEAR=1989
DGENRE=Classical
TTITLE0=Symphony No.9 in D major - I. Andante comodo -
TTITLE1=Symphony No.9 in D major - Mit Wut: Allegro risoluto -
TTITLE2=Symphony No.9 in D major - Tempo I
TTITLE3=Symphony No.9 in D major - II. Im Tempo eines gemachlichen Lan
TTITLE3=dlers - Etwas tappisch und sehr derb -
TTITLE4=Symphony No.9 in D major - Poco piu mosso subito -
TTITLE5=Symphony No.9 in D major - Landler, ganz langsam
TTITLE6=Symphony No.9 in D major - III. Rondo-Burleske: Allegro assai 
TTITLE6=Sehr trotzig -
TTITLE7=Symphony No.9 in D major - Presto
EXTD=YEAR: 1989
EXTT0=
EXTT1=
EXTT2=
EXTT3=
EXTT4=
EXTT5=
EXTT6=
EXTT7=
PLAYORDER=
